# xmcd CD database file generated by Grip 3.0.0
# 
# Track frame offsets:
#       150
#       21697
#       42491
#       56106
#       70403
#       89682
#       108037
#       123976
#       134826
#       150333
#       166002
# 
# Disc length: 2468 seconds
# 
# Revision: 3
# Processed by: cddbd v1.4PL0 Copyright (c) Steve Scherf et al.
# Submitted via: Grip 3.0.0
# 
DISCID=9b09a20b
DTITLE=Bebel Gilberto - Tanto Tempo
DYEAR=1900
DGENRE=Other
TTITLE0=Samba De Benção
TTITLE1=August Day Song
TTITLE2=Tanto Tempo
TTITLE3=Sem Contenção
TTITLE4=Mais Feliz
TTITLE5=Alguem
TTITLE6=So Nice
TTITLE7=Lonely
TTITLE8=Bananeira
TTITLE9=Samba E Amor
TTITLE10=Close Your Eyes
EXTD=
EXTT0=
EXTT1=
EXTT2=
EXTT3=
EXTT4=
EXTT5=
EXTT6=
EXTT7=
EXTT8=
EXTT9=
EXTT10=
PLAYORDER=
